<svg xmlns="http://www.w3.org/2000/svg" width="184.663" height="300" viewBox="0 0 184.663 300"><defs><style>.a{fill:#0c2428;}.b{fill:#fff;}.c{fill:#ffc1a6;}.d{fill:#009aff;}.e{fill:#4ab7ff;}</style></defs><path class="a" d="M647.573,234.9a13.012,13.012,0,0,0,8.945-2.373,24.54,24.54,0,0,0,6.415-6.881,44.586,44.586,0,0,0,6.278-14.588,8.551,8.551,0,0,0,8.332,2.9c4.963-1.114,7.94-6.905,6.972-11.9s-5.065-8.953-9.741-10.958-9.886-2.335-14.973-2.324a29.016,29.016,0,0,0-9.924,1.314c-3.151,1.15-6.037,3.443-7.157,6.605-.7,1.982-.679,4.177-1.477,6.122-1.449,3.532-5.206,5.461-8.732,6.925s-7.359,2.95-9.439,6.152c-2.348,3.616-1.67,8.662.917,12.11s6.744,5.448,10.973,6.284,8.587.629,12.893.419" transform="translate(-577.235 -188.775)"/><path class="b" d="M427.652,420.73l-13.9-6.026,7.54-15.52,11.223,6.568Z" transform="translate(-395.809 -147.474)"/><path class="a" d="M481.27,288.45l-13.422,27.3-23.686,48.183L419.742,352.2,446.7,289.084l.076-7.945.241-24.722Z" transform="translate(-398.019 -94.771)"/><path class="b" d="M566.284,405.426,552.011,410.5l-5.074-16.492,12.686-2.854Z" transform="translate(-444.974 -144.51)"/><path class="c" d="M713.282,362.558l-43.133-12.369,12.686-8.563,33.3,10.466,15.058,3.614a7.441,7.441,0,0,1,5.052,10.284h0a7.441,7.441,0,0,1-10.367,3.477Z" transform="translate(-595.144 -245.241)"/><path class="d" d="M684.459,312.99l-17.444,10.149c-1.539-12.692,6.049-35.285,15.541-59.943h0a18.967,18.967,0,0,1,7.67,17.913Z" transform="translate(-593.914 -216.27)"/><path class="c" d="M566.632,360.634l-.367,13.018a7.508,7.508,0,0,1-9.447,7.041h0a7.508,7.508,0,0,1-4.884-10.376l4.867-10.634,15.224-36.156,10.466,3.806Z" transform="translate(-551.253 -238.559)"/><path class="c" d="M13.638,0A13.638,13.638,0,1,1,0,13.638,13.638,13.638,0,0,1,13.638,0Z" transform="translate(72.626 6.829)"/><path class="c" d="M512.018,63.095,496.16,55.483l7.928-17.761,13.321,2.537Z" transform="translate(-426.229 -13.925)"/><path class="d" d="M652.224,323.823l-32.35-7.929,6.5-59.547a10.475,10.475,0,0,1,11.362-9.3l10.687.971,14.589,6.66,5.392,5.709-1.645,7.036c1.534,14.491.351,27.065-8.073,34.527Z" transform="translate(-576.584 -210.272)"/><path class="d" d="M595.96,301.823l-16.809-4.44,22.536-37.325a24.107,24.107,0,0,1,23.135-11.517h0l-8.563,28.227C608.341,282.742,601.689,291.33,595.96,301.823Z" transform="translate(-561.552 -210.79)"/><path class="a" d="M692.911,495.028l-25.69,7.612c-31.282-50.785-76.075-105.514-58.674-142.086l6.343-14.906L647.875,355.8l1.9,39.327,20.3,31.716Z" transform="translate(-570.967 -246.798)"/><path d="M746.4,622.453l-22.831-.224A8.224,8.224,0,0,1,715.4,614V602.624a2.624,2.624,0,0,1,3.4-2.517c4.124,1.322,7.5.882,10.046-1.515,1.526-1.437,1.7-1.725,3.521-.68l10.307,11.259,4.18.27a6.512,6.512,0,0,1,6.075,6.012h0a6.512,6.512,0,0,1-6.531,7Z" transform="translate(-611.847 -339.692)"/><path d="M582.436,639.956l-15.985-16.3a8.223,8.223,0,0,1,.038-11.592l8.048-8.048a2.624,2.624,0,0,1,4.184.625c1.981,3.851,4.68,5.927,8.175,6.033,2.1.063,2.425-.015,2.971,2.009l-.673,15.25,2.765,3.147a6.513,6.513,0,0,1,.045,8.547h0a6.513,6.513,0,0,1-9.567.332Z" transform="translate(-555.988 -341.889)"/><path class="a" d="M669.539,208.522a16.327,16.327,0,0,0,7.914,6.531c2.317.892,5.257,1.114,7-.658a6.262,6.262,0,0,0,1.332-5.049c-.558-5.586-4.756-10.45-9.965-12.543s-11.222-1.635-16.42.484c-4.9,2-9.563,6.095-9.826,11.385-.135,2.711.846,5.7-.609,7.987-1.1,1.726-3.213,2.427-5.109,3.191s-3.931,1.97-4.32,3.977a4.45,4.45,0,0,0,1.306,3.793,10.3,10.3,0,0,0,3.507,2.2,18.3,18.3,0,0,0,9.818,1.628A10.065,10.065,0,0,0,662,225.816c1-2.387.8-5.08.68-7.665s-.081-5.339,1.3-7.528,4.586-3.415,6.649-1.852" transform="translate(-583.826 -191.237)"/><path class="e" d="M43.387,0H1.486A1.484,1.484,0,0,0,.664,2.718L21.613,16.685a1.482,1.482,0,0,0,1.647,0L44.209,2.718A1.484,1.484,0,0,0,43.387,0Z" transform="translate(125.957 81.934) rotate(-16)"/><path class="e" d="M53.592.251,28.773,16.8a1.486,1.486,0,0,1-1.647,0L2.307.251A1.484,1.484,0,0,0,0,1.486V33.1a1.483,1.483,0,0,0,1.484,1.484H54.416A1.483,1.483,0,0,0,55.9,33.1V1.486A1.484,1.484,0,0,0,53.592.251Z" transform="translate(121.398 86.033) rotate(-16)"/></svg>