<svg xmlns="http://www.w3.org/2000/svg" xmlns:xlink="http://www.w3.org/1999/xlink" width="55.934" height="55.856" viewBox="0 0 55.934 55.856"><defs><style>.a{fill:url(#a);}.b{fill:url(#b);}.c{fill:url(#c);}.d{fill:url(#d);}</style><linearGradient id="a" y1="0.5" x2="1" y2="0.5" gradientUnits="objectBoundingBox"><stop offset="0" stop-color="#0c2428"/><stop offset="0.55" stop-color="#163a6c"/><stop offset="1" stop-color="#00548b"/></linearGradient><linearGradient id="b" x1="0" y1="0.5" x2="1" y2="0.5" xlink:href="#a"/><linearGradient id="c" y1="0.5" x2="1" y2="0.5" gradientUnits="objectBoundingBox"><stop offset="0" stop-color="#00548b"/><stop offset="0.45" stop-color="#163a6c"/><stop offset="1" stop-color="#0c2428"/></linearGradient><linearGradient id="d" x1="0" y1="0.5" x2="1" y2="0.5" xlink:href="#c"/></defs><g transform="translate(-23.021 -23.356)"><path class="a" d="M190.523,83.159l.246-22.055,18.853,23.631s14.441-10.38,8.4-30.42c0,0-3.708-12.176-16.378-16.835,0,0-2.61,3.95-.41,6.745s6.224,5.367,8.087,8.832a20.793,20.793,0,0,1,.317,20.348L191.219,51.015a5.2,5.2,0,0,0-2.263-1.614,3.561,3.561,0,0,0-4.559,1.787,7.44,7.44,0,0,0-1.078,3.911V76.311A8.045,8.045,0,0,0,190.523,83.159Z" transform="translate(-140.546 -12.384)"/><path class="b" d="M60.595,24.574s-2.181,5.311-12.578,6.205S32.058,45.293,31.638,48.834c-.4,3.412-1.565,11.814,9.577,19.863A22.456,22.456,0,0,0,61.079,70.15a10.127,10.127,0,0,1,7.751,3.2A28.892,28.892,0,0,1,45.2,78.274C31.563,75,25.006,62.511,24.483,56.325S23.924,42.278,29.589,34.6A28.588,28.588,0,0,1,48.967,23.456,37.774,37.774,0,0,1,60.595,24.574Z" transform="translate(-1.089 0)"/><path class="c" d="M36.7,180.024s-12.243-7.583-11.039-26.434c0,0-7.806,16.038,3.45,29.325s24.586,11.212,31.755,8.388,6.884-3.76,6.884-3.76a9.294,9.294,0,0,0-7.751-3.2s-6.114,2.31-11.936,1.37S39.776,182.643,36.7,180.024Z" transform="translate(0 -114.188)"/><path class="d" d="M331.349,72.129s10.763-10.6,6.872-20.024c0,0-4.784-11.1-15.494-14.626,0,0-2.406,3.6-.707,6.366,1.517,2.464,4.3,3.482,7.779,8.482a15.594,15.594,0,0,1,2.095,4.312c.011.036.022.073.035.108a23.534,23.534,0,0,1-.031,13.9,12.762,12.762,0,0,1-.547,1.479Z" transform="translate(-261.625 -12.384)"/></g></svg>