<svg xmlns="http://www.w3.org/2000/svg" xmlns:xlink="http://www.w3.org/1999/xlink" width="1459.12" height="92.95" viewBox="0 0 1459.12 92.95"><defs><style>.a{opacity:0.25;mix-blend-mode:exclusion;isolation:isolate;fill:url(#a);}</style><linearGradient id="a" x1="0.5" x2="0.5" y2="1" gradientUnits="objectBoundingBox"><stop offset="0" stop-color="#a5dbff"/><stop offset="1" stop-color="#00548b"/></linearGradient></defs><path class="a" d="M130.52,0h-18.2L71.11-62.27V0H52.91V-90.87h18.2l41.21,62.4v-62.4h18.2Zm86.97-90.74v14.69H179.66v23.27h28.99v14.43H179.66V0h-18.2V-90.74Zm87.62,0v14.69H280.93V0h-18.2V-76.05H238.55V-90.74Zm133.38,27.3a21.305,21.305,0,0,0-8.58-8.71,26.11,26.11,0,0,0-12.74-2.99,27.853,27.853,0,0,0-14.3,3.64,25.141,25.141,0,0,0-9.75,10.4,33.376,33.376,0,0,0-3.51,15.6,33.456,33.456,0,0,0,3.575,15.86,25.309,25.309,0,0,0,9.945,10.4,29.35,29.35,0,0,0,14.82,3.64q10.4,0,17.03-5.525t8.71-15.405h-31.2V-50.44h49.14v15.86a42.628,42.628,0,0,1-7.8,17.55A44.039,44.039,0,0,1,438.425-4.1,45.294,45.294,0,0,1,417.3.78a47.831,47.831,0,0,1-23.725-5.915,43.037,43.037,0,0,1-16.64-16.445A47.174,47.174,0,0,1,370.89-45.5a47.531,47.531,0,0,1,6.045-23.985A42.909,42.909,0,0,1,393.575-86a47.571,47.571,0,0,1,23.6-5.915q15.34,0,26.65,7.475a38.17,38.17,0,0,1,15.6,20.995Zm105.3,46.15H507.65L501.67,0H482.56l32.63-90.87h21.19L569.01,0H549.77Zm-4.94-14.56L525.72-69.81,512.59-31.85ZM655.98-90.74v14.69H631.8V0H613.6V-76.05H589.42V-90.74Zm44.46,14.69V-53.3h30.55v14.43H700.44v24.05h34.45V0H682.24V-90.87h52.65v14.82ZM864.37-90.74v14.69H826.54v23.27h28.99v14.43H826.54V0h-18.2V-90.74Zm44.07,14.69V-53.3h30.55v14.43H908.44v24.05h34.45V0H890.24V-90.87h52.65v14.82Zm119.6,58.76H991.9L985.92,0H966.81l32.63-90.87h21.19L1053.26,0h-19.24Zm-4.94-14.56-13.13-37.96L996.84-31.85Zm117.13-58.89v14.69h-24.18V0h-18.2V-76.05h-24.18V-90.74Zm44.2,0v56.16q0,9.23,4.81,14.1t13.52,4.875q8.84,0,13.65-4.875t4.81-14.1V-90.74h18.33v56.03q0,11.57-5.005,19.565a31.744,31.744,0,0,1-13.39,12.025A42.506,42.506,0,0,1,1202.5.91a41.37,41.37,0,0,1-18.4-4.03,30.682,30.682,0,0,1-13.065-12.025q-4.81-8-4.81-19.565V-90.74ZM1316.9,0l-20.02-35.36h-8.58V0h-18.2V-90.74h34.06q10.53,0,17.94,3.705a25.883,25.883,0,0,1,11.115,10.01,27.318,27.318,0,0,1,3.705,14.1,27.017,27.017,0,0,1-5.2,16.185q-5.2,7.215-15.47,9.945L1337.96,0Zm-28.6-49.01h15.21q7.41,0,11.05-3.575t3.64-9.945q0-6.24-3.64-9.685t-11.05-3.445H1288.3Zm96.33-27.04V-53.3h30.55v14.43h-30.55v24.05h34.45V0h-52.65V-90.87h52.65v14.82ZM1479.92.91a43.1,43.1,0,0,1-17.1-3.25A28.068,28.068,0,0,1,1450.8-11.7a24.645,24.645,0,0,1-4.55-14.43h19.5a12.61,12.61,0,0,0,3.965,8.84q3.575,3.25,9.815,3.25,6.37,0,10.01-3.055a9.936,9.936,0,0,0,3.64-7.995,9.237,9.237,0,0,0-2.47-6.63,17.306,17.306,0,0,0-6.175-4.095,102.2,102.2,0,0,0-10.205-3.315,109.3,109.3,0,0,1-14.365-5.135,25.16,25.16,0,0,1-9.49-7.67q-3.965-5.135-3.965-13.715a24.522,24.522,0,0,1,4.03-14.04,25.632,25.632,0,0,1,11.31-9.165,41.149,41.149,0,0,1,16.64-3.185q14.04,0,22.815,6.825t9.685,19.045h-20.02A10.4,10.4,0,0,0,1487-73.905q-3.7-3.055-9.815-3.055a12.638,12.638,0,0,0-8.515,2.73q-3.185,2.73-3.185,7.93a8.2,8.2,0,0,0,2.405,6.045,18.342,18.342,0,0,0,5.98,3.9q3.575,1.5,10.075,3.445a105.841,105.841,0,0,1,14.43,5.2,25.914,25.914,0,0,1,9.62,7.8q4.03,5.2,4.03,13.65a25.676,25.676,0,0,1-3.77,13.52A26.614,26.614,0,0,1,1497.21-2.8,37.69,37.69,0,0,1,1479.92.91Z" transform="translate(-52.91 92.04)"/></svg>